<mxfile host="app.diagrams.net" modified="2023-09-12T00:49:06.005Z" agent="Mozilla/5.0 (Windows NT 10.0; Win64; x64) AppleWebKit/537.36 (KHTML, like Gecko) Chrome/116.0.0.0 Safari/537.36 Edg/116.0.1938.76" etag="ijhQqCVhFejEMGQWWIwh" version="21.7.4" type="device">
  <diagram name="Página-1" id="WyX3fGmSRfHKiVoKBB4t">
    <mxGraphModel dx="1038" dy="473" grid="1" gridSize="10" guides="1" tooltips="1" connect="1" arrows="1" fold="1" page="1" pageScale="1" pageWidth="827" pageHeight="1169" math="0" shadow="0">
      <root>
        <mxCell id="0" />
        <mxCell id="1" parent="0" />
        <mxCell id="4kWvenvT2VcfbY6n0yD6-2" value="" style="edgeStyle=orthogonalEdgeStyle;rounded=0;orthogonalLoop=1;jettySize=auto;html=1;" parent="1" source="4kWvenvT2VcfbY6n0yD6-10" target="4kWvenvT2VcfbY6n0yD6-18" edge="1">
          <mxGeometry relative="1" as="geometry" />
        </mxCell>
        <mxCell id="4kWvenvT2VcfbY6n0yD6-3" style="edgeStyle=orthogonalEdgeStyle;rounded=0;orthogonalLoop=1;jettySize=auto;html=1;entryX=0;entryY=0.5;entryDx=0;entryDy=0;" parent="1" source="4kWvenvT2VcfbY6n0yD6-10" target="4kWvenvT2VcfbY6n0yD6-17" edge="1">
          <mxGeometry relative="1" as="geometry" />
        </mxCell>
        <mxCell id="4kWvenvT2VcfbY6n0yD6-4" style="edgeStyle=orthogonalEdgeStyle;rounded=0;orthogonalLoop=1;jettySize=auto;html=1;entryX=0;entryY=0.5;entryDx=0;entryDy=0;" parent="1" source="4kWvenvT2VcfbY6n0yD6-10" target="4kWvenvT2VcfbY6n0yD6-19" edge="1">
          <mxGeometry relative="1" as="geometry" />
        </mxCell>
        <mxCell id="4kWvenvT2VcfbY6n0yD6-5" style="edgeStyle=orthogonalEdgeStyle;rounded=0;orthogonalLoop=1;jettySize=auto;html=1;entryX=0.011;entryY=0.64;entryDx=0;entryDy=0;entryPerimeter=0;" parent="1" source="4kWvenvT2VcfbY6n0yD6-10" target="4kWvenvT2VcfbY6n0yD6-20" edge="1">
          <mxGeometry relative="1" as="geometry" />
        </mxCell>
        <mxCell id="4kWvenvT2VcfbY6n0yD6-6" style="edgeStyle=orthogonalEdgeStyle;rounded=0;orthogonalLoop=1;jettySize=auto;html=1;entryX=0.5;entryY=1;entryDx=0;entryDy=0;" parent="1" target="4kWvenvT2VcfbY6n0yD6-21" edge="1">
          <mxGeometry relative="1" as="geometry">
            <Array as="points">
              <mxPoint x="330" y="260" />
              <mxPoint x="330" y="230" />
              <mxPoint x="425" y="230" />
            </Array>
            <mxPoint x="180" y="260" as="sourcePoint" />
            <mxPoint x="480" y="165" as="targetPoint" />
          </mxGeometry>
        </mxCell>
        <mxCell id="4kWvenvT2VcfbY6n0yD6-7" style="edgeStyle=orthogonalEdgeStyle;rounded=0;orthogonalLoop=1;jettySize=auto;html=1;entryX=0.589;entryY=-0.04;entryDx=0;entryDy=0;entryPerimeter=0;exitX=0.5;exitY=0;exitDx=0;exitDy=0;exitPerimeter=0;" parent="1" source="4kWvenvT2VcfbY6n0yD6-10" target="4kWvenvT2VcfbY6n0yD6-22" edge="1">
          <mxGeometry relative="1" as="geometry">
            <Array as="points">
              <mxPoint x="410" y="260" />
              <mxPoint x="410" y="288" />
            </Array>
          </mxGeometry>
        </mxCell>
        <mxCell id="4kWvenvT2VcfbY6n0yD6-9" style="edgeStyle=orthogonalEdgeStyle;rounded=0;orthogonalLoop=1;jettySize=auto;html=1;entryX=0.409;entryY=0.033;entryDx=0;entryDy=0;entryPerimeter=0;" parent="1" source="4kWvenvT2VcfbY6n0yD6-10" target="4kWvenvT2VcfbY6n0yD6-24" edge="1">
          <mxGeometry relative="1" as="geometry">
            <Array as="points">
              <mxPoint x="125" y="360" />
              <mxPoint x="404" y="360" />
            </Array>
          </mxGeometry>
        </mxCell>
        <mxCell id="4kWvenvT2VcfbY6n0yD6-10" value="Cliente" style="shape=umlActor;verticalLabelPosition=bottom;verticalAlign=top;html=1;" parent="1" vertex="1">
          <mxGeometry x="110" y="260" width="30" height="60" as="geometry" />
        </mxCell>
        <mxCell id="4kWvenvT2VcfbY6n0yD6-13" value="" style="edgeStyle=orthogonalEdgeStyle;rounded=0;orthogonalLoop=1;jettySize=auto;html=1;" parent="1" source="4kWvenvT2VcfbY6n0yD6-16" target="4kWvenvT2VcfbY6n0yD6-28" edge="1">
          <mxGeometry relative="1" as="geometry" />
        </mxCell>
        <mxCell id="4kWvenvT2VcfbY6n0yD6-14" style="edgeStyle=orthogonalEdgeStyle;rounded=0;orthogonalLoop=1;jettySize=auto;html=1;" parent="1" source="4kWvenvT2VcfbY6n0yD6-16" target="4kWvenvT2VcfbY6n0yD6-27" edge="1">
          <mxGeometry relative="1" as="geometry" />
        </mxCell>
        <mxCell id="4kWvenvT2VcfbY6n0yD6-15" style="edgeStyle=orthogonalEdgeStyle;rounded=0;orthogonalLoop=1;jettySize=auto;html=1;entryX=1;entryY=0.5;entryDx=0;entryDy=0;" parent="1" source="4kWvenvT2VcfbY6n0yD6-16" target="4kWvenvT2VcfbY6n0yD6-26" edge="1">
          <mxGeometry relative="1" as="geometry">
            <Array as="points">
              <mxPoint x="735" y="150" />
            </Array>
          </mxGeometry>
        </mxCell>
        <mxCell id="4kWvenvT2VcfbY6n0yD6-16" value="Administrador" style="shape=umlActor;verticalLabelPosition=bottom;verticalAlign=top;html=1;" parent="1" vertex="1">
          <mxGeometry x="725" y="250" width="30" height="60" as="geometry" />
        </mxCell>
        <mxCell id="4kWvenvT2VcfbY6n0yD6-17" value="Visualizar Produtos" style="ellipse;whiteSpace=wrap;html=1;" parent="1" vertex="1">
          <mxGeometry x="260" y="160" width="90" height="50" as="geometry" />
        </mxCell>
        <mxCell id="4kWvenvT2VcfbY6n0yD6-18" value="Listar produtos" style="ellipse;whiteSpace=wrap;html=1;" parent="1" vertex="1">
          <mxGeometry x="250" y="280" width="80" height="50" as="geometry" />
        </mxCell>
        <mxCell id="4kWvenvT2VcfbY6n0yD6-19" value="Remover produtos" style="ellipse;whiteSpace=wrap;html=1;" parent="1" vertex="1">
          <mxGeometry x="240" y="370" width="100" height="60" as="geometry" />
        </mxCell>
        <mxCell id="4kWvenvT2VcfbY6n0yD6-20" value="Finalizar Compra" style="ellipse;whiteSpace=wrap;html=1;" parent="1" vertex="1">
          <mxGeometry x="240" y="470" width="90" height="50" as="geometry" />
        </mxCell>
        <mxCell id="4kWvenvT2VcfbY6n0yD6-21" value="Fornecer detalhes de compra" style="ellipse;whiteSpace=wrap;html=1;" parent="1" vertex="1">
          <mxGeometry x="380" y="130" width="90" height="50" as="geometry" />
        </mxCell>
        <mxCell id="4kWvenvT2VcfbY6n0yD6-22" value="Visualizar Confirmação de compra" style="ellipse;whiteSpace=wrap;html=1;" parent="1" vertex="1">
          <mxGeometry x="360" y="290" width="90" height="50" as="geometry" />
        </mxCell>
        <mxCell id="4kWvenvT2VcfbY6n0yD6-24" value="Voltar ás compras" style="ellipse;whiteSpace=wrap;html=1;" parent="1" vertex="1">
          <mxGeometry x="359" y="442.5" width="110" height="60" as="geometry" />
        </mxCell>
        <mxCell id="4kWvenvT2VcfbY6n0yD6-26" value="Listar produtos" style="ellipse;whiteSpace=wrap;html=1;" parent="1" vertex="1">
          <mxGeometry x="565" y="140" width="95" height="50" as="geometry" />
        </mxCell>
        <mxCell id="4kWvenvT2VcfbY6n0yD6-27" value="Remover produto" style="ellipse;whiteSpace=wrap;html=1;" parent="1" vertex="1">
          <mxGeometry x="565" y="220" width="90" height="40" as="geometry" />
        </mxCell>
        <mxCell id="4kWvenvT2VcfbY6n0yD6-28" value="Atualizar detalhes de compra" style="ellipse;whiteSpace=wrap;html=1;" parent="1" vertex="1">
          <mxGeometry x="560" y="300" width="100" height="60" as="geometry" />
        </mxCell>
        <mxCell id="4kWvenvT2VcfbY6n0yD6-38" style="edgeStyle=orthogonalEdgeStyle;rounded=0;orthogonalLoop=1;jettySize=auto;html=1;entryX=1;entryY=0.5;entryDx=0;entryDy=0;" parent="1" source="4kWvenvT2VcfbY6n0yD6-32" target="4kWvenvT2VcfbY6n0yD6-35" edge="1">
          <mxGeometry relative="1" as="geometry">
            <mxPoint x="667.5" y="477.5" as="targetPoint" />
          </mxGeometry>
        </mxCell>
        <mxCell id="4kWvenvT2VcfbY6n0yD6-39" style="edgeStyle=orthogonalEdgeStyle;rounded=0;orthogonalLoop=1;jettySize=auto;html=1;entryX=1;entryY=0.5;entryDx=0;entryDy=0;" parent="1" source="4kWvenvT2VcfbY6n0yD6-32" target="4kWvenvT2VcfbY6n0yD6-34" edge="1">
          <mxGeometry relative="1" as="geometry" />
        </mxCell>
        <mxCell id="4kWvenvT2VcfbY6n0yD6-40" style="edgeStyle=orthogonalEdgeStyle;rounded=0;orthogonalLoop=1;jettySize=auto;html=1;entryX=1;entryY=0.5;entryDx=0;entryDy=0;" parent="1" source="4kWvenvT2VcfbY6n0yD6-32" target="4kWvenvT2VcfbY6n0yD6-37" edge="1">
          <mxGeometry relative="1" as="geometry">
            <mxPoint x="665" y="602.5" as="targetPoint" />
          </mxGeometry>
        </mxCell>
        <mxCell id="4kWvenvT2VcfbY6n0yD6-41" style="edgeStyle=orthogonalEdgeStyle;rounded=0;orthogonalLoop=1;jettySize=auto;html=1;entryX=1;entryY=0.5;entryDx=0;entryDy=0;" parent="1" source="4kWvenvT2VcfbY6n0yD6-32" target="4kWvenvT2VcfbY6n0yD6-36" edge="1">
          <mxGeometry relative="1" as="geometry" />
        </mxCell>
        <mxCell id="4kWvenvT2VcfbY6n0yD6-32" value="Vendedor" style="shape=umlActor;verticalLabelPosition=bottom;verticalAlign=top;html=1;" parent="1" vertex="1">
          <mxGeometry x="727.5" y="497.5" width="30" height="50" as="geometry" />
        </mxCell>
        <mxCell id="4kWvenvT2VcfbY6n0yD6-34" value="Listar produtos" style="ellipse;whiteSpace=wrap;html=1;" parent="1" vertex="1">
          <mxGeometry x="572.5" y="387.5" width="85" height="50" as="geometry" />
        </mxCell>
        <mxCell id="4kWvenvT2VcfbY6n0yD6-35" value="Listar relatório" style="ellipse;whiteSpace=wrap;html=1;" parent="1" vertex="1">
          <mxGeometry x="572.5" y="447.5" width="90" height="50" as="geometry" />
        </mxCell>
        <mxCell id="4kWvenvT2VcfbY6n0yD6-36" value="Cadastrar venda" style="ellipse;whiteSpace=wrap;html=1;" parent="1" vertex="1">
          <mxGeometry x="565" y="517.5" width="92.5" height="50" as="geometry" />
        </mxCell>
        <mxCell id="4kWvenvT2VcfbY6n0yD6-37" value="Filtro de usuário" style="ellipse;whiteSpace=wrap;html=1;" parent="1" vertex="1">
          <mxGeometry x="563.75" y="585" width="92.5" height="50" as="geometry" />
        </mxCell>
      </root>
    </mxGraphModel>
  </diagram>
</mxfile>
